<?xml version="1.0" standalone="no"?>
<!DOCTYPE svg PUBLIC "-//W3C//DTD SVG 20010904//EN"
 "http://www.w3.org/TR/2001/REC-SVG-20010904/DTD/svg10.dtd">
<svg version="1.0" xmlns="http://www.w3.org/2000/svg"
 width="435.000000pt" height="435.000000pt" viewBox="0 0 435.000000 435.000000"
 preserveAspectRatio="xMidYMid meet">
<metadata>
Created by potrace 1.14, written by Peter Selinger 2001-2017
</metadata>
<g transform="translate(0.000000,435.000000) scale(0.100000,-0.100000)"
fill="#000000" stroke="none">
<path d="M1077 4344 c-1 -1 -36 -4 -77 -7 -182 -15 -403 -100 -550 -212 -246
-188 -398 -451 -435 -755 -9 -71 -9 -2328 -1 -2400 13 -100 56 -243 105 -345
156 -327 460 -552 822 -608 69 -11 317 -13 1260 -12 646 1 1194 5 1219 10 153
26 327 97 456 187 68 46 181 149 227 206 95 119 191 315 212 433 3 18 8 35 10
39 2 4 8 35 12 71 9 76 10 2348 1 2434 -41 388 -333 754 -708 890 -41 15 -82
28 -90 30 -8 2 -35 8 -60 14 -25 5 -72 13 -105 17 -46 5 -2291 13 -2298 8z
m2027 -681 c10 -87 20 -165 21 -173 1 -8 6 -42 9 -75 4 -33 9 -71 11 -85 4
-23 -25 -45 -355 -265 -297 -199 -358 -243 -355 -260 2 -11 18 -110 36 -220
18 -110 33 -202 35 -204 3 -4 132 84 427 292 114 81 211 147 216 147 4 0 6
-30 4 -67 -1 -38 -5 -135 -7 -218 -3 -82 -5 -155 -5 -162 -1 -6 -123 -105
-271 -219 -185 -142 -269 -213 -266 -224 43 -161 85 -239 146 -272 46 -26 129
-19 196 15 127 64 334 257 514 477 75 91 89 105 98 95 22 -25 212 -338 212
-349 0 -13 -88 -146 -113 -170 -7 -8 -24 -27 -38 -42 -85 -100 -268 -236 -408
-304 -395 -193 -766 -152 -1051 116 -97 92 -158 116 -296 115 -353 -1 -658
-240 -799 -626 -10 -27 -22 -54 -26 -58 -4 -5 -35 9 -69 32 -34 23 -63 41 -64
41 -5 0 -350 220 -358 228 -4 4 32 48 80 97 556 577 853 1021 788 1176 -6 13
52 63 261 225 147 115 270 211 273 214 3 3 23 19 45 36 79 60 511 397 545 424
142 114 536 419 541 420 3 0 14 -71 23 -157z"/>
<path d="M1903 2383 c-144 -152 -242 -264 -318 -363 -27 -36 -52 -67 -56 -70
-3 -3 -10 -15 -13 -28 -7 -20 -5 -22 16 -17 13 3 61 7 108 10 47 2 126 7 175
10 76 5 186 12 233 14 10 1 11 53 6 259 -4 141 -7 272 -7 290 0 17 -3 32 -7
32 -4 0 -65 -62 -137 -137z"/>
</g>
</svg>
